<svg width="67" height="67" xmlns="http://www.w3.org/2000/svg">

 <g>
  <title>background</title>
  <rect fill="none" id="canvas_background" height="402" width="582" y="-1" x="-1"/>
 </g>
 <g>
  <title>Layer 1</title>
  <path stroke-opacity="0" stroke="#000000" id="svg_1" fill-rule="evenodd" clip-rule="evenodd" fill="#1877f2" d="m28.839239,51.531071l7.540853,0l0,-18.147708l5.03059,0l0.666422,-6.253076l-5.697012,0l0.007827,-3.130986c0,-1.62998 0.156542,-2.505011 2.509145,-2.505011l3.144259,0l0,-6.254188l-5.031708,0c-6.043641,0 -8.170376,3.034254 -8.170376,8.135448l0,3.754737l-3.767072,0l0,6.254188l3.767072,0l0,18.146596zm4.735397,15.210185c-18.525632,0 -33.544722,-14.934445 -33.544722,-33.35567c0,-18.422336 15.01909,-33.35567 33.544722,-33.35567s33.544722,14.933333 33.544722,33.35567c0,18.421225 -15.01909,33.35567 -33.544722,33.35567z"/>
 </g>
</svg>