<svg width="128" height="128" xmlns="http://www.w3.org/2000/svg">

 <g>
  <title>background</title>
  <rect fill="none" id="canvas_background" height="402" width="582" y="-1" x="-1"/>
 </g>
 <g>
  <title>Layer 1</title>
  <rect id="svg_1" width="128" height="128" fill-rule="evenodd" fill="none" clip-rule="evenodd"/>
  <path stroke="null" id="Spotify" fill-rule="evenodd" fill="#1ed760" d="m64.000002,0.361169c-35.001355,0 -63.638826,28.718738 -63.638826,63.819417s28.637472,63.819417 63.638826,63.819417s63.638826,-28.718738 63.638826,-63.819417s-28.319278,-63.819417 -63.638826,-63.819417m29.27386,92.219057c-1.272777,1.914583 -3.500135,2.552777 -5.4093,1.276388c-14.955124,-9.253815 -33.728578,-11.168398 -56.002167,-6.062845c-2.227359,0.638194 -4.136524,-0.957291 -4.772912,-2.871874c-0.636388,-2.23368 0.954582,-4.148262 2.863747,-4.786456c24.182754,-5.42465 45.183567,-3.190971 61.729662,7.020136c2.227359,0.957291 2.545553,3.510068 1.590971,5.42465m7.636659,-17.55034c-1.590971,2.23368 -4.454718,3.190971 -6.682077,1.595485c-17.182483,-10.530204 -43.274402,-13.721175 -63.320632,-7.339233c-2.545553,0.638194 -5.4093,-0.638194 -6.045689,-3.190971c-0.636388,-2.552777 0.636388,-5.42465 3.181941,-6.062845c23.228172,-7.020136 51.865644,-3.510068 71.59368,8.615621c1.909165,0.957291 2.863747,4.148262 1.272777,6.381942m0.636388,-17.869437c-20.364424,-12.125689 -54.411197,-13.402078 -73.821039,-7.339233c-3.181941,0.957291 -6.363883,-0.957291 -7.318465,-3.829165c-0.954582,-3.190971 0.954582,-6.381942 3.81833,-7.339233c22.591783,-6.701039 59.820497,-5.42465 83.366863,8.615621c2.863747,1.595485 3.81833,5.42465 2.227359,8.296524c-1.590971,2.23368 -5.4093,3.190971 -8.273047,1.595485" clip-rule="evenodd"/>
 </g>
</svg>